<?xml version="1.0" encoding="UTF-8" standalone="no"?>
<!DOCTYPE svg PUBLIC "-//W3C//DTD SVG 1.1//EN" "http://www.w3.org/Graphics/SVG/1.1/DTD/svg11.dtd">
<svg width="100%" height="100%" viewBox="0 0 100 100" version="1.1" xmlns="http://www.w3.org/2000/svg" xmlns:xlink="http://www.w3.org/1999/xlink" xml:space="preserve" xmlns:serif="http://www.serif.com/" style="fill-rule:evenodd;clip-rule:evenodd;stroke-linecap:square;stroke-miterlimit:2;">
    <g transform="matrix(1.60727,0,0,1.60727,-528.479,-730.252)">
        <g id="Layer-1" serif:id="Layer 1">
            <g id="g3112">
                <g id="g4958" transform="matrix(1,0,0,1,-11.0852,-29.9095)">
                    <path id="path4960" d="M371.041,492.518L342.808,513.359L361.955,527.476L363.714,528.746L363.681,528.762L365.586,530.163L388.202,513.425L370.634,500.464L353.342,513.278L365.586,522.298L377.895,513.132L370.829,507.921L370.829,506.472L370.862,506.423L379.263,512.643L379.914,513.132L379.263,513.62L365.977,523.536L365.619,523.796L365.244,523.536L351.958,513.767L351.291,513.278L351.942,512.79L370.259,499.21L370.617,498.95L370.992,499.21L389.57,512.936L390.237,513.425L389.586,513.913L365.977,531.416L365.619,531.677L365.244,531.416L362.639,529.495L360.75,530.798L358.129,532.784L365.309,538.206L399.192,513.099L371.041,492.518Z" style="fill-rule:nonzero;stroke:rgb(159,159,159);stroke-width:3px;"/>
                    <path id="path4962" d="M364.426,515.574L364.487,514.291L361.679,512.949L361.679,513.559L364.426,515.575L364.426,515.574L364.426,515.574Z" style="fill:white;fill-rule:nonzero;stroke:rgb(128,128,128);stroke-width:3px;stroke-linecap:butt;stroke-miterlimit:4;"/>
                    <path id="path4964" d="M366.96,515.574L366.899,514.291L369.707,512.949L369.707,513.559L366.96,515.574L366.96,515.574Z" style="fill:white;fill-rule:nonzero;stroke:rgb(128,128,128);stroke-width:3px;stroke-linecap:butt;stroke-miterlimit:4;"/>
                </g>
                <g id="g3433" transform="matrix(1,0,0,1,-11.0852,-29.9095)">
                    <path id="path2280" d="M371.041,492.518L342.808,513.359L361.955,527.476L363.714,528.746L363.681,528.762L365.586,530.163L388.202,513.425L370.634,500.464L353.342,513.278L365.586,522.298L377.895,513.132L370.829,507.921L370.829,506.472L370.862,506.423L379.263,512.643L379.914,513.132L379.263,513.62L365.977,523.536L365.619,523.796L365.244,523.536L351.958,513.767L351.291,513.278L351.942,512.79L370.259,499.21L370.617,498.95L370.992,499.21L389.57,512.936L390.237,513.425L389.586,513.913L365.977,531.416L365.619,531.677L365.244,531.416L362.639,529.495L360.75,530.798L358.129,532.784L365.309,538.206L399.192,513.099L371.041,492.518L371.041,492.518Z" style="fill-rule:nonzero;"/>
                    <path id="path2302" d="M364.426,515.574L364.487,514.291L361.679,512.949L361.679,513.559L364.426,515.575L364.426,515.574L364.426,515.574Z" style="fill:white;fill-rule:nonzero;"/>
                    <path id="path2300" d="M366.96,515.574L366.899,514.291L369.707,512.949L369.707,513.559L366.96,515.574L366.96,515.574Z" style="fill:white;fill-rule:nonzero;"/>
                </g>
            </g>
        </g>
    </g>
</svg>
