<?xml version="1.0" encoding="UTF-8" standalone="no"?>
<!-- Created with Inkscape (http://www.inkscape.org/) -->

<svg
   xmlns:dc="http://purl.org/dc/elements/1.1/"
   xmlns:cc="http://creativecommons.org/ns#"
   xmlns:rdf="http://www.w3.org/1999/02/22-rdf-syntax-ns#"
   xmlns:svg="http://www.w3.org/2000/svg"
   xmlns="http://www.w3.org/2000/svg"
   xmlns:sodipodi="http://sodipodi.sourceforge.net/DTD/sodipodi-0.dtd"
   xmlns:inkscape="http://www.inkscape.org/namespaces/inkscape"
   width="100"
   height="100"
   id="svg3422"
   sodipodi:version="0.32"
   inkscape:version="0.48.1 r9760"
   sodipodi:docname="gruehead.svg"
   inkscape:output_extension="org.inkscape.output.svg.inkscape"
   version="1.0"
   inkscape:export-filename="/home/glyph/gruehead.png"
   inkscape:export-xdpi="90"
   inkscape:export-ydpi="90">
  <defs
     id="defs3424">
    <inkscape:perspective
       sodipodi:type="inkscape:persp3d"
       inkscape:vp_x="0 : 25 : 1"
       inkscape:vp_y="0 : 1000 : 0"
       inkscape:vp_z="100 : 25 : 1"
       inkscape:persp3d-origin="50 : 16.666667 : 1"
       id="perspective4104" />
  </defs>
  <sodipodi:namedview
     id="base"
     pagecolor="#ffffff"
     bordercolor="#666666"
     borderopacity="1.0"
     gridtolerance="10000"
     guidetolerance="10"
     objecttolerance="10"
     inkscape:pageopacity="0.0"
     inkscape:pageshadow="2"
     inkscape:zoom="5.656854"
     inkscape:cx="25.51559"
     inkscape:cy="34.989911"
     inkscape:document-units="px"
     inkscape:current-layer="layer1"
     inkscape:window-width="1296"
     inkscape:window-height="1021"
     inkscape:window-x="617"
     inkscape:window-y="94"
     width="100px"
     height="50px"
     showgrid="false"
     inkscape:window-maximized="0" />
  <metadata
     id="metadata3427">
    <rdf:RDF>
      <cc:Work
         rdf:about="">
        <dc:format>image/svg+xml</dc:format>
        <dc:type
           rdf:resource="http://purl.org/dc/dcmitype/StillImage" />
        <dc:title></dc:title>
      </cc:Work>
    </rdf:RDF>
  </metadata>
  <g
     inkscape:label="Layer 1"
     inkscape:groupmode="layer"
     id="layer1"
     transform="translate(-320.89062,-438.51843)">
    <g
       id="g3112"
       transform="matrix(1.6072671,0,0,1.6072671,-207.58862,-291.73356)">
      <g
         style="stroke:#808080;stroke-width:3;stroke-miterlimit:4;stroke-opacity:1;stroke-dasharray:none"
         id="g4958"
         transform="translate(-11.085184,-29.90954)">
        <path
           inkscape:connector-curvature="0"
           id="path4960"
           d="m 371.0407,492.51843 -28.23311,20.84105 19.14772,14.11656 1.75846,1.27 -0.0326,0.0163 1.905,1.40026 22.6158,-16.73798 -17.56835,-12.96053 -17.29157,12.81399 12.24412,9.02027 12.30925,-9.1668 -7.06642,-5.21027 0,-1.4491 0.0326,-0.0489 8.40156,6.21975 0.65128,0.48847 -0.65128,0.48846 -13.28618,9.91578 -0.3582,0.26051 -0.3745,-0.26051 -13.28617,-9.76924 -0.66756,-0.48847 0.65128,-0.48846 18.31733,-13.57925 0.35821,-0.26051 0.37449,0.26051 18.57784,13.72579 0.66757,0.48846 -0.65128,0.48847 -23.60901,17.50323 -0.3582,0.26051 -0.3745,-0.26051 -2.60513,-1.92129 -1.88872,1.30257 -2.62141,1.98641 7.18039,5.42193 33.883,-25.10696 -28.15171,-20.58054 z"
           style="fill:#000000;fill-opacity:1;fill-rule:nonzero;stroke:#808080;stroke-width:3;stroke-miterlimit:4;stroke-opacity:1;stroke-dasharray:none" />
        <path
           inkscape:connector-curvature="0"
           style="fill:#ffffff;fill-rule:nonzero;stroke:#808080;stroke-width:3;stroke-miterlimit:4;stroke-opacity:1;stroke-dasharray:none"
           d="m 364.42628,515.57385 0.0612,-1.28238 -2.80898,-1.34294 0,0.6109 2.74776,2.01507 0,-6.5e-4 z"
           id="path4962" />
        <path
           inkscape:connector-curvature="0"
           style="fill:#ffffff;fill-rule:nonzero;stroke:#808080;stroke-width:3;stroke-miterlimit:4;stroke-opacity:1;stroke-dasharray:none"
           d="m 366.95977,515.57385 -0.0612,-1.28238 2.80833,-1.34294 0,0.6109 -2.74711,2.01442 z"
           id="path4964" />
      </g>
      <g
         transform="translate(-11.085184,-29.90954)"
         id="g3433">
        <path
           inkscape:connector-curvature="0"
           style="fill:#000000;fill-opacity:1;fill-rule:nonzero;stroke:none"
           d="m 371.0407,492.51843 -28.23311,20.84105 19.14772,14.11656 1.75846,1.27 -0.0326,0.0163 1.905,1.40026 22.6158,-16.73798 -17.56835,-12.96053 -17.29157,12.81399 12.24412,9.02027 12.30925,-9.1668 -7.06642,-5.21027 0,-1.4491 0.0326,-0.0489 8.40156,6.21975 0.65128,0.48847 -0.65128,0.48846 -13.28618,9.91578 -0.3582,0.26051 -0.3745,-0.26051 -13.28617,-9.76924 -0.66756,-0.48847 0.65128,-0.48846 18.31733,-13.57925 0.35821,-0.26051 0.37449,0.26051 18.57784,13.72579 0.66757,0.48846 -0.65128,0.48847 -23.60901,17.50323 -0.3582,0.26051 -0.3745,-0.26051 -2.60513,-1.92129 -1.88872,1.30257 -2.62141,1.98641 7.18039,5.42193 33.883,-25.10696 -28.15171,-20.58054 z"
           id="path2280" />
        <path
           inkscape:connector-curvature="0"
           id="path2302"
           d="m 364.42628,515.57385 0.0612,-1.28238 -2.80898,-1.34294 0,0.6109 2.74776,2.01507 0,-6.5e-4 z"
           style="fill:#ffffff;fill-rule:nonzero;stroke:none" />
        <path
           inkscape:connector-curvature="0"
           id="path2300"
           d="m 366.95977,515.57385 -0.0612,-1.28238 2.80833,-1.34294 0,0.6109 -2.74711,2.01442 z"
           style="fill:#ffffff;fill-rule:nonzero;stroke:none" />
      </g>
    </g>
  </g>
</svg>
